<?xml version="1.0" encoding="UTF-8"?>
<svg id="Layer_2" data-name="Layer 2" xmlns="http://www.w3.org/2000/svg" xmlns:xlink="http://www.w3.org/1999/xlink" viewBox="0 0 114.46 113.55">
  <defs>
    <style>
      .cls-1 {
        fill: url(#linear-gradient-8);
      }

      .cls-2 {
        fill: url(#linear-gradient-7);
      }

      .cls-3 {
        fill: url(#linear-gradient-5);
      }

      .cls-4 {
        fill: url(#linear-gradient-6);
      }

      .cls-5 {
        fill: url(#linear-gradient-9);
      }

      .cls-6 {
        fill: url(#linear-gradient-4);
      }

      .cls-7 {
        fill: url(#linear-gradient-3);
      }

      .cls-8 {
        fill: url(#linear-gradient-2);
      }

      .cls-9 {
        fill: url(#linear-gradient);
      }

      .cls-10 {
        fill: #093a8f;
      }
    </style>
    <linearGradient id="linear-gradient" x1="1284.13" y1="139.11" x2="1173.57" y2="63.11" gradientTransform="translate(-1147.8 -7.17)" gradientUnits="userSpaceOnUse">
      <stop offset=".64" stop-color="#009fe3"/>
      <stop offset="1" stop-color="#312783"/>
    </linearGradient>
    <linearGradient id="linear-gradient-2" x1="112.89" y1="115.83" x2="-6.67" y2="33.63" gradientTransform="matrix(1,0,0,1,0,0)" xlink:href="#linear-gradient"/>
    <linearGradient id="linear-gradient-3" x1="19.92" y1="110.46" x2="36.93" y2="83.56" gradientTransform="matrix(1,0,0,1,0,0)" xlink:href="#linear-gradient"/>
    <linearGradient id="linear-gradient-4" x1="60.91" y1="114.71" x2="-5.81" y2="73.31" gradientTransform="matrix(1,0,0,1,0,0)" xlink:href="#linear-gradient"/>
    <linearGradient id="linear-gradient-5" x1="69.62" y1="10.72" x2="39.55" y2="43.68" gradientTransform="matrix(1,0,0,1,0,0)" xlink:href="#linear-gradient"/>
    <linearGradient id="linear-gradient-6" x1="71.57" y1="7.37" x2="59.75" y2="20.32" gradientTransform="matrix(1,0,0,1,0,0)" xlink:href="#linear-gradient"/>
    <linearGradient id="linear-gradient-7" x1="68.98" y1="35.24" x2="53.29" y2="24.46" gradientTransform="matrix(1,0,0,1,0,0)" xlink:href="#linear-gradient"/>
    <linearGradient id="linear-gradient-8" x1="-6.36" y1="27.14" x2="5.78" y2="40.07" gradientUnits="userSpaceOnUse">
      <stop offset=".64" stop-color="#009fe3"/>
      <stop offset="1" stop-color="#1d71b8"/>
    </linearGradient>
    <linearGradient id="linear-gradient-9" x1="95.38" y1="119.03" x2="33.66" y2="62.46" xlink:href="#linear-gradient-8"/>
  </defs>
  <g id="Layer_1-2" data-name="Layer 1">
    <g>
      <polygon class="cls-9" points="114.46 113.54 88.76 113.54 15.83 56.62 14.15 55.27 13.25 54.55 0 43.89 0 23.92 114.46 113.54"/>
      <polygon class="cls-8" points="114.46 113.54 88.76 113.54 15.83 56.62 14.15 55.27 13.25 54.55 0 43.89 0 23.92 114.46 113.54"/>
    </g>
    <polygon class="cls-7" points="71.15 113.55 45.45 113.55 .39 78.38 0 78.08 0 57.84 71.15 113.55"/>
    <polygon class="cls-6" points="57.63 113.55 45.45 113.55 .39 78.38 .39 68.74 57.63 113.55"/>
    <polygon class="cls-3" points="80.14 11.88 50.15 35.7 50.15 53.35 47.42 51.15 43.47 47.98 34.32 40.63 34.32 28.13 54.76 11.88 80.14 11.88"/>
    <g>
      <polygon class="cls-10" points="2.08 5.42 3.51 5.42 3.51 9.87 4.1 9.87 4.1 5.42 5.53 5.42 5.53 4.89 2.08 4.89 2.08 5.42"/>
      <path class="cls-10" d="M9.1,8.35c-.06.13-.14.34-.24.61h-.02c-.03-.13-.11-.33-.23-.6l-1.53-3.47h-.77v4.98h.56v-3.33c0-.45,0-.78-.03-.98h.01c.05.23.1.4.15.51l1.7,3.8h.28l1.7-3.83c.04-.1.09-.26.15-.48h.01c-.03.38-.05.71-.05.97v3.34h.58v-4.98h-.73l-1.56,3.46Z"/>
      <path class="cls-10" d="M7.04,0C3.16,0,0,3.16,0,7.04s3.16,7.04,7.04,7.04,7.04-3.16,7.04-7.04S10.93,0,7.04,0ZM7.04,13.69C3.38,13.69.39,10.71.39,7.04S3.38.39,7.04.39s6.65,2.98,6.65,6.65-2.98,6.65-6.65,6.65Z"/>
    </g>
    <polygon class="cls-4" points="80.14 11.88 56.8 18.29 54.76 11.88 80.14 11.88"/>
    <polygon class="cls-2" points="80.14 11.88 50.15 35.7 50.15 53.35 47.42 51.15 42.07 46.85 42.07 30.91 56.8 18.29 80.03 11.88 80.14 11.88"/>
    <polygon class="cls-1" points="0 43.89 11.39 41.59 0 23.93 0 43.89"/>
    <polygon class="cls-5" points="102.79 113.55 88.76 113.55 15.83 56.63 14.15 55.28 13.25 54.56 0 43.9 0 43.17 11.39 41.59 102.79 113.55"/>
  </g>
</svg>