<?xml version="1.0" encoding="UTF-8"?>
<svg id="Layer_2" data-name="Layer 2" xmlns="http://www.w3.org/2000/svg" viewBox="0 0 252.72 204.81">
  <defs>
    <style>
      .cls-1 {
        fill: #ea5b0c;
      }

      .cls-2 {
        fill: #619130;
      }

      .cls-3 {
        fill: #8cc051;
      }

      .cls-4 {
        fill: #054b47;
      }
    </style>
  </defs>
  <g id="Layer_1-2" data-name="Layer 1">
    <g>
      <path class="cls-4" d="M186.2,126.84c-1.11.97-2.29,1.71-3.46,2.45-3.09,1.89-6.07,3.12-8.99,3.78-2.92.65-5.59.81-8.01.46-2.43-.35-4.36-1.25-5.67-2.56-1.31-1.39-1.89-3.17-1.65-5.28.29-2.77,1.71-5.11,4.24-7.02,2.53-1.99,4.77-2.75,6.69-2.5.62.11.74-.33.3-1.3-.51-1.42-1.51-2.2-2.94-2.42-3.11-.46-6.46.76-10.04,3.65-3.59,2.81-5.61,6.59-6.14,11.32-.41,3.86.73,7.65,3.43,11.23,2.76,3.66,6.31,5.74,10.73,6.41,3.05.45,6.28.18,9.69-.81,3.41-.92,6.82-2.65,10.28-5.1,2.72-1.98,5.25-4.26,7.66-6.99-2.55-.72-4.74-2.66-6.13-5.3Z"/>
      <path class="cls-4" d="M248.32,90.36c0-1.08-.33-2.44-.78-3.88-.62-2.05-1.81-3.47-3.65-4.32-1.77-.84-3.65-.82-5.65.07-1.86.76-4.11,2.38-6.67,4.72-2.56,2.4-7.73,7.88-15.49,16.37,2.68,1.3,4.69,3.71,5.39,6.64,6.97-7.59,11.56-12.43,13.91-14.71,2.64-2.53,4.75-4.09,6.26-4.74.62-.3,1.16-.34,1.55-.04.32.22.44.56.5.7.51,1.58-1.51,3.95-2.02,6.94-.3,1.66-.24,4.09.61,4.41,1.25.48,4.12-3.66,5.35-7.55.73-2.18.69-3.79.67-4.6Z"/>
      <path class="cls-2" d="M202.71,122.87c-1.74,4.85-6.18,7.87-9.85,6.68-.31-.13-.55-.24-.77-.41-2.12-1.06-3.33-3.5-3.41-6.38,0-.44.02-.9.06-1.33.08-.96.3-1.9.64-2.88,1.74-4.88,6.12-7.91,9.85-6.68,2.34.73,3.81,2.99,4.13,5.81.2,1.61,0,3.4-.65,5.2Z"/>
      <path class="cls-2" d="M218.41,118.41l-.17.42c-1.81,4.66-6.05,7.43-9.66,6.27-2.93-.97-4.52-4.3-4.14-8.08.08-.96.27-1.94.64-2.93,1.74-4.88,6.18-7.89,9.85-6.68,1.73.6,2.98,1.99,3.62,3.82.27.63.42,1.33.49,2.07.2,1.57,0,3.36-.63,5.11Z"/>
      <path class="cls-3" d="M203.36,117.67c-.08.96-.3,1.94-.66,2.95-1.74,4.88-6.18,7.87-9.85,6.68-.31-.13-.55-.24-.77-.41-1.9-.95-3.07-3-3.34-5.46.08-.96.3-1.9.64-2.88,1.74-4.88,6.12-7.91,9.85-6.68,2.34.73,3.81,2.99,4.13,5.81Z"/>
      <path class="cls-3" d="M219.04,113.3c-.1.94-.32,1.9-.64,2.86l-.17.42c-1.81,4.66-6.05,7.43-9.66,6.27-2.34-.75-3.81-3.04-4.13-5.83.08-.96.27-1.94.64-2.93,1.74-4.88,6.18-7.89,9.85-6.68,1.73.6,2.98,1.99,3.62,3.82.27.63.42,1.33.49,2.07Z"/>
      <path class="cls-2" d="M94.86,66.31c-1.74,4.85-6.18,7.87-9.85,6.68-.31-.13-.55-.24-.77-.41-2.12-1.06-3.33-3.5-3.41-6.38,0-.44.02-.9.06-1.33.08-.96.3-1.9.64-2.88,1.74-4.88,6.12-7.91,9.85-6.68,2.34.73,3.81,2.99,4.13,5.81.2,1.61,0,3.4-.65,5.2Z"/>
      <path class="cls-2" d="M110.56,61.86l-.17.42c-1.81,4.66-6.05,7.43-9.66,6.27-2.93-.97-4.52-4.3-4.14-8.08.08-.96.27-1.94.64-2.93,1.74-4.88,6.18-7.89,9.85-6.68,1.73.6,2.98,1.99,3.62,3.82.27.63.42,1.33.49,2.07.2,1.57,0,3.36-.63,5.11Z"/>
      <path class="cls-3" d="M95.51,61.12c-.08.96-.3,1.94-.66,2.95-1.74,4.88-6.18,7.87-9.85,6.68-.31-.13-.55-.24-.77-.41-1.9-.95-3.07-3-3.34-5.46.08-.96.3-1.9.64-2.88,1.74-4.88,6.12-7.91,9.85-6.68,2.34.73,3.81,2.99,4.13,5.81Z"/>
      <path class="cls-3" d="M111.19,56.75c-.1.94-.32,1.9-.64,2.86l-.17.42c-1.81,4.66-6.05,7.43-9.66,6.27-2.34-.75-3.81-3.04-4.13-5.83.08-.96.27-1.94.64-2.93,1.74-4.88,6.18-7.89,9.85-6.68,1.73.6,2.98,1.99,3.62,3.82.27.63.42,1.33.49,2.07Z"/>
      <path class="cls-4" d="M232.61,7.2c-1.97-2.8-4.16-4.36-6.55-4.76-.88-.16-1.7-.18-2.4.06-.7.18-1.15.49-1.22.88-.06.06.12.46.42.99.24.53.36,1.12.29,1.71-.35,1.62-.88,3.11-1.6,4.46-.72,1.35-2.01,2.88-3.94,4.65-1.93,1.71-4.42,3.4-7.49,5.07-3.06,1.61-7.27,3.45-12.68,5.45-5.35,2-11.64,3.98-18.95,6.12-12.01,3.31-20.99,7.1-26.95,11.37-5.96,4.27-9.46,9-10.63,14.32-.41,1.88,0,3.2,1.19,3.95.62.41,1.01.36,1.14-.23.56-2.86,2.63-5.41,6.14-7.66,3.46-2.32,7.79-4.28,12.88-5.83,5.09-1.55,10.74-3.02,16.9-4.48,6.16-1.46,12.32-2.98,18.48-4.56,6.16-1.59,11.82-3.38,17.1-5.32,5.16-1.94,9.63-4.36,13.28-7.26,3.59-2.97,5.74-6.3,6.57-9.99.69-3.24.05-6.2-1.99-8.93Z"/>
      <path class="cls-4" d="M214.93,62.93c-.45-.65-.89-1.16-1.7-1.66-3.39-2.16-9.37-.26-11.23,4.08-1.21,2.94-.43,6.89.82,7.31,1.84.64,3.96-5.46,6.9-4.91,1.1.21,1.92,1.3,2.44,2.24.15.29.37.73.45,1.24.23.95.7,3.95-5.23,10.16-3.4,3.63-7.47,6.67-12.13,8.85,0,.07-5.61,2.11-5.61,2.11-1.46.46-2.99.77-4.38.86-2.49.1-4.54-.31-6.24-1.25-1.4-.86-2.22-2.17-2.46-4-.08-.29-.15-.58-.16-.95l-7.64-2.11c-.13,1.61-.11,3.37-.01,5.49.17,2.19.56,4.24,1.24,5.92.98,2.48,2.47,4.37,4.46,5.81,3.47,2.45,7.73,3.57,12.78,3.22,4.76-.27,9.49-2.09,14.36-5.22,4.79-3.28,8.77-7.5,11.86-12.66,3.02-5.09,4.42-10.3,4.14-15.5-.19-3.88-1.1-6.87-2.67-9.05Z"/>
      <g>
        <path class="cls-4" d="M108.31,77.93c-.28-.79-.59-1.4-1.23-2.07-2.69-2.91-8.38-2.01-10.81,2.18-1.6,2.87-1.6,7.15-.55,7.83,1.55,1.01,4.52-5,7.06-3.86.97.43,1.5,1.72,1.81,2.8.09.32.19.83.19,1.39.05,1.03-.04,4.26-6.48,9.7-3.69,3.16-7.87,5.6-12.44,7.02-.02.09-5.39,1.17-5.39,1.17-.17.05-.36.05-.51.06-1.24.18-2.48.17-3.6.03-.24-.04-.47-.07-.71-.13-.64,2.61-1.43,5.16-2.55,7.65-.63,1.32-1.39,2.82-2.16,4.21.69.3,1.43.56,2.18.78.91.28,1.87.45,2.89.59,4.34.6,8.9-.42,13.83-2.79,4.86-2.57,9.2-6.23,12.87-11.08,3.58-4.76,5.77-9.98,6.44-15.48.5-4.1.2-7.42-.83-9.98ZM62.04,98.15c-.04.28-.05.54-.07.79.02-.04.04-.09.04-.13.04-.19.1-.41.11-.6-.02-.04-.07-.06-.09-.1v.04Z"/>
        <path class="cls-4" d="M83.74,80.74c-5.12-16.35-30.09-16.03-35.24-.87-5.36,11.93,3.88,26.03,16.9,31.01-.98,2-2.5,4.55-4.82,7.21-1.85,2.13-3.76,3.81-5.47,5.13-.49.37-.88.56-1.61,1-2.11,1.26-5.23,3.12-9.43,4.64-1.33.48-3.17,1.09-5.49,1.61-.28.07-.59.17-.87.2-4.03.92-7.94-.18-9.92-2.67-.19-.18-.35-.34-.51-.51-1.27-1.47-1.77-3.31-1.42-5.46.35-2.19,1.39-4.1,3.13-5.72.45-.43.98-.84,1.53-1.22,2.67-1.9,4.99-2.58,6.95-2.22.62.13.76-.31.36-1.31-.26-.93-.77-1.6-1.44-2.05-.42-.27-.88-.44-1.43-.55-3.15-.62-6.62.45-10.4,3.21-.66.47-1.28.98-1.84,1.53-2.7,2.52-4.33,5.76-4.97,9.72-.59,3.9.38,7.82,2.97,11.59,2.62,3.86,6.15,6.17,10.61,7.07,1.19.22,2.39.36,3.65.37,4.15.3,7.89-.61,9.89-1.36.81-.29,2.83-1.15,3.14-1.26,3.69-1.54,6.61-2.87,8.49-3.76.02-.02.07-.02.09-.04.84-.54,1.68-1.15,2.52-1.82,3.06-2.36,6.2-4.82,9.18-7.42,3.6-3.11,6.93-6.44,9.45-10.13v-.02c.05-.08.09-.15.16-.23.87-1.34,1.72-2.78,2.44-4.06,1.28-2.41,2.24-4.9,3.06-7.46.34-.99.64-2.01.92-3.03,1.91-7.31,1.8-14.95-.57-21.11ZM69.53,100.19c-.16.23-.28.46-.45.62-.04.04-.07.1-.11.15-.18.21-.38.41-.54.56-.99-.41-2.31-1.08-3.62-2.06-.5-.34-.98-.73-1.43-1.17-.21-.16-.39-.34-.58-.52-.02-.04-.04-.07-.06-.09-.14-.13-.23-.22-.39-.38-.06-.09-.18-.22-.33-.36-.35-.4-.81-1.02-1.16-1.89-.46-1.24-.81-2.58-1.02-3.9-.35-2.26-.48-4.34.21-6.96.8-3.06,2.42-5.19,3.47-6.36,1.44-1.28,3.26-1.83,4.68-1.24,1.29.53,1.95,1.88,2.4,2.79.44.9.59,1.67.77,2.49.21,1.01.35,2.2.29,3.55,0,0,.6,4.01-.73,10.19-.08.34-.13.66-.23.98-.11.49-.21,1.02-.39,1.57-.03.19-.1.4-.15.59,0,.04-.03.08-.05.13-.05.17-.11.36-.19.55-.12.29-.25.54-.38.76Z"/>
      </g>
      <path class="cls-4" d="M147.8,59.77c2.33-3.06,5.47-4.5,7.34-5.36,3.66-1.68,6.86-1.92,8.07-2,5.02-.35,9.62,1.26,13.82,4.87,4.16,3.61,6.34,8.23,6.44,13.88.08,4.91-1.15,8.59-2.54,12.28-.58,1.53-2.1,5.32-5.06,9.75-4.02,6.02-8.36,9.73-9.85,10.95-4.24,3.47-11.35,9.3-21.6,9.95-1.87.12-8.92.49-15.91-3.09-.37-.19-.81-.41-1.4-.77-6.16-3.85-8.69-9.61-9.77-12.19-1.6-3.77-2.1-7.18-2.25-9.48-.02-.08.02-.13,0-.21.04-1.09.08-2.18.15-3.32,0,0,13.64-62.48,16.31-77.66.05-.84.39-1.45,1.12-1.76,1.49-.13,3.65-.49,6.04-1.53,2.81-1.22,4.75-2.86,5.89-3.99.08-.04.18-.07.31-.09.2-.02.4.02.61.12.29.19.42.46.33.85-.68,14.34-5.15,13.07-14.65,67.33l-1.57,10.1c-.18,3.83-.36,7.4-.48,10.63l.09.02c-.08,1.93.04,6.08,2.66,9.98,1.32,1.97,2.77,3.12,3.24,3.48,3.38,2.57,6.96,2.88,8.28,2.92,3.21.11,5.59-.9,7.03-1.53,6.07-2.65,9.28-7.61,11.53-11.1,2.63-4.06,3.78-7.49,4.84-10.64,1.85-5.51,1.89-8.52,1.86-10.19-.06-3.11-.86-5.54-2.41-7.28-1.55-1.74-3.69-2.49-6.4-2.3-4.67.33-8.34,3.68-9.68,5.08-3.43,3.58-3.77,6.64-4.55,6.46-1.23-.29-2.15-8.46,2.18-14.17Z"/>
      <g>
        <g>
          <path class="cls-1" d="M100.83,149.04c-1.01.06-1.96-.15-2.83-.63-.72-.44-1.29-.95-1.74-1.57-.62-.79-1.03-1.82-1.21-3.04-.1-1.02-.03-2.05.22-3.08.25-1.05.71-2.16,1.36-3.29.49-.9,1.06-1.69,1.69-2.33.89-.96,1.94-1.68,3.1-2.14.77-.31,1.52-.49,2.24-.54,1.07-.07,2.09.16,3.04.68,1.34.92,2.18,2.14,2.51,3.63.13.29.18.63.22.93.02.16.04.32.05.49.14,1.8-.31,3.63-1.36,5.44-.11.21-.25.45-.38.66l-.09.14c-1.15,1.84-2.61,3.17-4.34,3.97-.86.39-1.69.62-2.49.67Z"/>
          <path class="cls-1" d="M219.34,185.62c-2.64.11-4.84-.37-6.52-1.42-1.68-1.06-2.87-2.56-3.55-4.48-.48-1.35-.69-2.93-.61-4.72l-.05.07c-1.61,2.04-3.33,3.92-5.13,5.59-1.83,1.7-3.79,3.13-5.84,4.26-2.08,1.14-4.26,1.76-6.48,1.85-1.79.07-3.22-.55-4.24-1.86-.89-1.15-1.09-2.89-.61-5.19-.6.62-1.18,1.19-1.75,1.72-1.84,1.71-3.8,3.14-5.83,4.26-2.08,1.14-4.26,1.76-6.48,1.85-1.79.07-3.22-.55-4.24-1.86-1.02-1.32-1.14-3.41-.36-6.23.02-.08.05-.16.07-.25-1.65,1.45-3.38,2.75-5.15,3.87-2.46,1.55-5.06,2.83-7.72,3.79-2.68.96-5.38,1.51-8.01,1.61-3.2.13-5.79-.4-7.7-1.56-1.93-1.17-3.24-2.82-3.9-4.88-.38-1.22-.54-2.61-.45-4.16-.42.46-.8.87-1.17,1.24-2.07,2.11-4.3,3.96-6.64,5.51-2.34,1.55-4.83,2.81-7.41,3.73-2.58.92-5.19,1.45-7.78,1.55-3.24.13-5.88-.38-7.84-1.51-1.97-1.13-3.31-2.76-4-4.83-.38-1.17-.55-2.48-.5-3.89-.05.06-.1.12-.15.19-1.57,2.03-3.26,3.91-5.03,5.58-1.74,1.65-3.6,3.01-5.54,4.06-1.93,1.04-4.05,1.61-6.29,1.7-1.67.07-3.09-.55-4.23-1.85-1.14-1.3-1.35-3.4-.63-6.22.5-2.08,1.54-4.46,3.09-7.07l.25-.43c.25-.42.5-.85.75-1.29,1.24-2.12,2.55-4.37,3.91-6.74l.14-.24,7.77-13.3h.19c.41.03.84.03,1.29,0,1.13-.05,2.39-.21,3.75-.49,1.89-.38,3.67-.95,5.3-1.7l.75-.35-14.57,25.12c-3.07,5.48-3.31,7.48-2.97,8.18.15.31.45.45.93.43,1.29-.05,3.08-1.08,5.34-3.06,1.69-1.49,3.63-3.75,5.76-6.72.57-.78,1.12-1.59,1.71-2.46.45-1.13,1.05-2.36,1.73-3.58.4-.7.83-1.41,1.29-2.13,1.91-3.03,4.06-5.67,6.4-7.84,2.33-2.15,4.72-3.91,7.11-5.25,2.4-1.34,4.79-2.3,7.09-2.87,1.52-.37,2.95-.59,4.28-.64.71-.03,1.4-.01,2.06.05,1.73.19,3.1.68,4.07,1.45.99.79,1.64,1.77,1.95,2.93.31,1.17.35,2.48.11,3.9-.24,1.41-.69,2.83-1.34,4.22-.79,1.6-1.77,3.1-2.9,4.44l-.07.09c-1.12,1.29-2.33,2.37-3.6,3.2-1.24.8-2.49,1.33-3.84,1.6-.07.02-.16.04-.26.06l-.12.02c-.39.07-.77.11-1.14.12-1.11.05-2.22-.13-3.3-.52l-.34-.12.27-.34.3.04-.21-.16.76-1.02c.94-1.28,1.88-2.59,2.85-3.96,1.3-1.85,2.31-3.35,3.09-4.59,1.68-2.73,2.6-4.72,2.75-5.92s-.12-1.8-.8-2.04c-.22-.07-.47-.1-.74-.09-.49.02-1.07.18-1.72.46-1.07.48-2.33,1.34-3.74,2.57-1.44,1.23-2.99,2.83-4.6,4.77-1.64,1.97-3.34,4.31-5.06,6.97-.45.71-.88,1.4-1.26,2.07-.61,1.05-1.14,2.06-1.58,3.01-1.47,3.07-2.17,5.72-2.07,7.85.14,3.2,1.9,4.68,5.4,4.54,1.57-.06,3.36-.42,5.34-1.06,1.96-.63,4-1.59,6.06-2.86,2.05-1.26,4.11-2.89,6.1-4.83,1.39-1.35,2.75-2.94,4.05-4.71.35-.47.68-.96,1.02-1.45.66-1.72,1.62-3.6,2.81-5.51.07-.11.13-.21.2-.3,1.85-2.9,3.94-5.46,6.21-7.59,2.32-2.18,4.71-3.96,7.12-5.3,2.41-1.34,4.8-2.28,7.09-2.81,1.46-.35,2.88-.55,4.2-.6.76-.03,1.5-.01,2.21.05,1.68.13,3.03.62,4,1.46.96.85,1.63,1.89,1.96,3.11.34,1.23.35,2.62.03,4.15-.32,1.54-.94,3.11-1.86,4.68-.32.57-.68,1.14-1.05,1.7-1.1,1.62-2.4,3.16-3.87,4.57-1.89,1.83-3.99,3.39-6.22,4.65-.07.05-.16.1-.25.15-2.33,1.3-4.83,2.32-7.46,3.02-2.15.59-4.31.93-6.43,1.01-.36.01-.73.02-1.09.02-.45,2.24-.27,4,.56,5.23.85,1.29,2.27,1.88,4.35,1.8,1.52-.06,3.28-.41,5.38-1.06,2.06-.64,4.2-1.61,6.37-2.88,2.18-1.28,4.35-2.91,6.45-4.85,1.05-.96,2.1-2.08,3.12-3.32.74-.9,1.48-1.9,2.27-3.07.76-1.31,1.56-2.69,2.38-4.11l.23-.4c.24-.42.49-.84.73-1.26l8.47-14.73-4.22.17,2.83-4.4,3.91-.16,5.9-10.26h.19c.39.03.8.03,1.23,0,1.16-.05,2.48-.23,3.92-.54,1.97-.42,3.72-.97,5.19-1.66l.74-.34-8.23,14.42-1.37,2.19-11.1,19.39-2.85,4.96c-1.73,3.07-2.8,5.35-3.17,6.79-.2.76-.2,1.29,0,1.57.14.2.39.29.77.27,1.23-.05,3.1-1.1,5.54-3.13,1.96-1.63,4.13-4.12,6.45-7.41.25-.35.47-.65.67-.96.06-.09.28-.48.28-.48,1.19-2.03,2.44-4.2,3.75-6.48l8.47-14.73-4.23.17,2.83-4.4,3.91-.16,5.9-10.26h.19c.39.03.8.03,1.23,0,1.16-.05,2.48-.23,3.92-.54,1.97-.41,3.72-.97,5.21-1.66l.74-.34-7.18,12.39,9.82-.28-2.71,4.4-9.62.27-13.22,23.08-.65,1.12c-1.73,3.06-2.79,5.35-3.17,6.79-.2.76-.2,1.29,0,1.57.14.2.4.29.78.28,1.24-.05,3.1-1.1,5.53-3.13,1.77-1.47,3.7-3.64,5.75-6.43.56-.77,1.14-1.59,1.73-2.46.04-.15.12-.38.21-.62.39-1.1.89-2.29,1.49-3.53,1.28-2.64,2.84-5.08,4.63-7.25,1.78-2.16,3.76-4.06,5.86-5.63,2.13-1.59,4.35-2.86,6.58-3.76,2.28-.92,4.58-1.43,6.84-1.52,2.6-.11,4.75.34,6.41,1.34,1.66,1,2.85,2.41,3.53,4.2.69,1.78.88,3.91.58,6.32-.07.56-.17,1.17-.31,1.83-.4,1.86-1.08,3.85-2.01,5.89l-.21.43c-.83,1.76-1.72,3.42-2.66,4.94-.88,1.42-1.83,2.76-2.83,3.97,1.91-.32,3.87-1.18,5.99-2.64,2.31-1.6,4.36-3.86,6.11-6.71l.17-.28,2.45,1.54-.18.27c-2.7,3.97-5.68,6.93-8.88,8.78-2.97,1.72-5.92,2.65-8.77,2.77,0,0-.35.01-.53.01-4.48,4.06-9.54,6.24-15.03,6.46ZM236.36,149.61c-1.02.04-2.12.47-3.29,1.26-1.21.82-2.48,1.95-3.78,3.36-1.31,1.41-2.61,3.06-3.97,5.03-1.33,1.93-2.62,4.03-3.83,6.26,0,0-.35.64-.45.82-.88,1.62-1.68,3.24-2.37,4.83l-.38.91c-.84,2.06-1.39,3.89-1.64,5.46-.26,1.54-.23,2.76.08,3.63.3.79.91,1.16,1.88,1.12,1.01-.04,2.13-.49,3.33-1.35,1.23-.87,2.54-2.07,3.9-3.56,1.33-1.46,2.7-3.23,4.05-5.26.72-1.1,1.35-2.1,1.91-3.06.64-1.07,1.29-2.22,2.06-3.64.49-.91.93-1.79,1.35-2.67.6-1.26,1.14-2.51,1.61-3.74.74-1.95,1.22-3.68,1.43-5.13.21-1.42.15-2.52-.17-3.28-.3-.71-.87-1.05-1.71-1.01ZM163.32,152.67c-1.19.05-2.96,1.06-5.26,2.99-2.12,1.78-4.49,4.5-7.03,8.08-.76,1.08-1.56,2.28-2.44,3.64-1.4,2.23-2.46,4.21-3.24,6.06-.23.55-.44,1.09-.62,1.64,1.77-.31,3.55-.94,5.32-1.9,1.15-.62,2.29-1.37,3.4-2.22,2.61-2,5.1-4.67,7.39-7.92.39-.54.76-1.11,1.14-1.69,1.72-2.59,2.65-4.68,2.79-6.23.13-1.45-.15-2.25-.81-2.37-.21-.06-.41-.09-.62-.08Z"/>
        </g>
        <path class="cls-1" d="M72.22,130.56c-.26-1.23-1.17-1.92-2.77-2.08-4.41-.47-9.01,1.35-13.81,5.42-4.8,4.09-10.01,10.97-15.61,20.61-3.42,5.84-6.58,10.85-9.48,15.03-2.9,4.18-5.37,7.37-7.41,9.63-2.05,2.25-3.97,4.01-5.82,5.23-1.84,1.22-3.38,1.95-4.58,2.19-1.23.26-2.52.3-3.91.16-.48-.05-.89-.28-1.27-.69-.35-.42-.58-.62-.64-.62-.35-.04-.68.21-.99.78-.32.57-.55,1.29-.65,2.18-.29,2.2.38,4.56,2.04,7.04,1.67,2.5,3.83,3.88,6.53,4.16,3.1.34,6.22-.69,9.4-3.09,3.2-2.39,6.18-5.64,9-9.7,2.8-4.08,5.61-8.59,8.39-13.57,2.8-4.96,5.52-9.97,8.17-14.99,2.66-5.02,5.24-9.57,7.75-13.64,2.49-4.07,5.07-7.32,7.72-9.77,2.68-2.45,5.18-3.54,7.51-3.3.48.05.64-.28.45-.96ZM85.08,180.41l-1.93-2.79c-.18-.23-.35-.25-.52-.05-3.82,5.05-7.95,9.72-12.44,14.04-4.49,4.32-7.8,6.35-9.94,6.14-.89-.11-1.39-.7-1.54-1.79-.13-1.1.06-2.58.59-4.44.53-1.85,1.12-3.74,1.81-5.68s1.37-4.08,2.06-6.39c.69-2.33,1.14-4.25,1.34-5.82.57-4.27-.49-7.33-3.18-9.17,6.92-.56,12.77-2.61,17.59-6.23,4.81-3.6,7.61-8.45,8.44-14.55,1.03-7.75-1.31-14.27-6.98-19.56-5.68-5.31-13.32-8.47-22.88-9.47-6.49-.68-12.68-.46-18.59.69-5.89,1.13-11.04,2.9-15.42,5.32-4.36,2.42-8.26,5.26-11.64,8.53-3.4,3.25-6.09,6.68-8.04,10.29-1.93,3.61-3.13,7.15-3.59,10.6-.69,5.09.34,9.54,3.08,13.38s6.07,5.95,10,6.38c4.74.48,9.05-.94,12.88-4.31,3.81-3.36,5.98-6.82,6.44-10.35.24-1.69-.27-2.98-1.47-3.86-.83-.68-1.27-.64-1.38.07-.3,2.22-1.76,4.51-4.37,6.9-2.63,2.37-5.36,3.41-8.16,3.11-2.14-.22-3.69-1.23-4.64-3-.95-1.79-1.24-4.07-.85-6.88.36-2.79,1.29-5.74,2.8-8.84,1.49-3.08,3.58-6.12,6.28-9.14,2.7-3,5.8-5.64,9.28-7.92,3.48-2.3,7.61-4.02,12.42-5.2,4.81-1.18,9.81-1.5,15.05-.95,7.38.78,12.56,3.13,15.56,7.07,3,3.93,4.11,8.73,3.38,14.41-.82,6.1-3.51,10.97-8.06,14.55-4.58,3.6-10.34,5.02-17.28,4.29-.62-.06-.84.51-.66,1.71.33,1.68,1.24,2.61,2.67,2.76l.94.1c1.45.6,2.03,2.09,1.72,4.44-.3,2.22-1.69,6.1-4.18,11.67-2.49,5.55-3.93,9.86-4.33,12.88-.92,6.91,1.82,10.72,8.23,11.4,7.23.76,17.04-7.14,29.43-23.69.24-.28.29-.48.1-.65Z"/>
      </g>
      <path class="cls-3" d="M135.48,118.4c-10.68.65-20.52-6.16-24.27-16.11,0,0,.92.03.92.03-3.54,8.7-11.82,15.26-21.18,16.39,9.45-1.92,17.51-8.83,20.73-17.9,3.65,10.43,12.71,17.28,23.8,17.59h0Z"/>
      <path class="cls-3" d="M218.83,3.43c3.02,5.56-4.7,11.36-8.94,13.77-5.09,2.99-10.78,5.06-16.43,6.69,5.34-2.34,10.9-4.56,15.92-7.55,4.13-2.43,11.61-7.31,9.45-12.91h0Z"/>
      <path class="cls-3" d="M33.88,106.51c-10.65-1.51-18.98,7.21-19.04,17.57-.05,1.42.09,2.84.32,4.26-.46-1.36-.7-2.8-.81-4.24-.81-10.79,8.55-20.52,19.53-17.58h0Z"/>
      <path class="cls-3" d="M63.24,66.61c-10.65-1.51-18.98,7.21-19.04,17.57-.05,1.42.09,2.84.32,4.26-.46-1.36-.7-2.8-.81-4.24-.81-10.79,8.55-20.52,19.53-17.58h0Z"/>
      <path class="cls-3" d="M147.72,128.65c.71,7.79,4.71,16.39,12.96,18.28,1.1.34,2.25.49,3.41.67-10.75.71-17.01-9.06-16.37-18.95h0Z"/>
      <path class="cls-3" d="M127.82,15c-2.4,14.16-5.5,28.29-9.23,42.17,2.4-14.17,5.5-28.3,9.23-42.17h0Z"/>
    </g>
  </g>
</svg>